<?xml version="1.0" encoding="utf-8"?>
<!-- Generator: Adobe Illustrator 24.2.1, SVG Export Plug-In . SVG Version: 6.00 Build 0)  -->
<svg version="1.1" id="Layer_1" xmlns="http://www.w3.org/2000/svg" xmlns:xlink="http://www.w3.org/1999/xlink" x="0px" y="0px"
	 viewBox="0 0 2000 2000" style="enable-background:new 0 0 2000 2000;" xml:space="preserve">
<style type="text/css">
	.st0{fill:#F8AA55;}
	.st1{fill:#F48907;}
	.st2{fill:#F7F5FB;}
</style>
<g>
	<g>
		<polygon class="st0" points="423.1,1628 531,1793.2 1039.3,1793.2 1039.3,183.8 518.4,183.8 448.5,357.4 287.5,442.1 287.5,1556 
					"/>
		<path class="st1" d="M1795.3,170c0,11.3,0,22.5,0,33.8c-1.2,4.5-1.7,9-2.8,14.1c-4,20.3-11.8,39.5-27,54.1
			c-18.6,18-41.2,24.2-66,24.2c-156.8,0-314,0-470.8,0c-7.3,0-8.5,2.3-8.5,9c0,458.9,0,917.8,0,1376.7c0,1.2,0,2.3,0,3.4
			c-0.5,4.5,1.2,5,5,5c13.5,0,26.5,1.2,40-0.5c12.4-1.2,19.7,4,25.3,14.1c29.3,52.5,28.8,106,2.8,159.6
			c-8.5,17.5-23.7,28.2-42.3,32.7c-2.3,0.5-5.7,0-7.3,2.3c-237.9,0-476.4,0-714.3,0c-1.7-1.2-4-1.2-5.7-1.7
			c-38.9-6.2-63.7-31.6-65.4-69.3c-1.2-25.3-6.2-49.6-15.2-72.7c-18-47.3-47.3-84.6-94.1-106c-28.8-13-58.6-18-90.2-18
			c-27.6,0-48.5-15.8-56.3-42.8c-1.7-5.7-2.8-11.3-4-16.9c0-391.8,0-783.1,0-1174.9c4.5-12.4,11.8-22.5,23.7-29.3
			c14.1-7.9,29.3-11.3,44.5-11.3c30.5,0.5,58.1-9,83.5-24.8c26.5-16.3,51.8-33.8,69.3-60.3c23.7-36.1,35-76.7,37.2-119.5
			c1.7-33.8,23.7-55.3,57-55.3c27,0,53.5,0,80.6,0c389.5,0,779.2,0,1168.7,0c6.2,0,9.6,1.7,12.4,6.8c7.3,13,12.4,26.5,15.8,40.6
			C1791.9,151.9,1793.6,160.9,1795.3,170z M978.4,993c0-251.4,0-503.5,0-754.9c0-10.7,0-10.7-10.7-10.7c-96.4,0-192.8,0-288.7,0
			c-28.8,0-57.5,0-85.7,0c-5,0-7.3,1.7-7.9,6.8c-2.3,14.1-6.8,28.2-11.3,41.7c-18.6,50.8-48.5,93.6-89.1,128.6
			c-38.9,33.8-83.5,57-132.5,72.1c-6.2,1.7-7.9,4.5-7.9,10.7c0,336.6,0,672.6,0,1009.1c0,6.2,2.3,9,8.5,10.2
			c50.8,13,95.8,37.2,135.3,72.2c51.8,46.2,85.1,103.8,104.3,170.3c2.8,10.2,2.8,10.2,13.5,10.2c120.6,0,241.3,0,361.9,0
			c1.7,0,3.4,0,5.7,0c5,0.5,6.8-1.7,6.2-6.2c0-2.3,0-4.5,0-6.8C978.4,1495.3,978.4,1244.5,978.4,993z"/>
		<path class="st2" d="M885.9,1029.1c0,46.8,0,94.1,0,141.5c0,5-0.5,10.2-0.5,15.8c-0.5,19.2-9.6,33.3-24.8,44.5
			c-19.2,14.7-41.2,23.7-64.3,31c-79,24.2-158.4,26.5-237.9,4.5c-24.8-6.8-46.8-18-67.1-34.3c-25.3-20.8-41.2-46.8-48-78.3
			c-5.7-27.6-5.7-55.3,0.5-82.3c10.7-47.3,41.7-76.7,84.6-95.8c36.7-16.3,75.5-22.5,115.6-26.5c48-4.5,95.3-9.6,143.2-14.1
			c5-0.5,6.8-1.7,6.8-7.3c-0.5-16.3,0.5-32.7-1.7-49c-6.2-45.7-34.3-71-77.3-81.8c-42.3-10.7-84.6-7.3-126.3,3.4
			c-29.8,7.9-58.6,19.2-86.3,33.3c-4.5,2.3-6.8,2.3-9.6-1.7c-2.8-4-6.2-6.8-9.6-10.7c-16.9-21.5-13.5-47.3,8.5-64.3
			c15.8-11.8,33.3-19.2,51.8-24.8c69.9-21.5,140.9-24.8,211.9-7.3c24.8,6.2,48,16.9,68.8,32.7c36.7,27,53.5,64.8,59.2,108.8
			c1.7,14.1,2.3,28.2,2.3,42.3C885.9,948.5,885.9,988.5,885.9,1029.1z M794,1091.1c0-26,0-51.8,0-77.8c0-5-0.5-6.8-6.8-6.2
			c-45.7,5-90.8,9.6-136.4,14.1c-25.3,2.8-50.2,6.8-73.3,17.5c-50.8,23.7-62.6,93.6-22.5,132.5c14.1,13.5,31,20.8,49,25.3
			c32.7,7.9,66,7.9,99.3,5c29.3-2.3,56.3-10.7,82.8-23.1c5-2.3,7.3-5.7,7.3-11.3C794,1141.9,794,1116.5,794,1091.1z"/>
	</g>
</g>
</svg>
